<?xml version="1.0" encoding="utf-8"?>
<svg viewBox="0 0 36 36" xmlns="http://www.w3.org/2000/svg" xmlns:svg="http://www.w3.org/2000/svg">
 <g>
  <title>Layer 1</title>
  <rect height="24" width="24" y="6" x="6" stroke-width="2" stroke-dasharray="4" stroke="#000000" fill-opacity="0" fill="#000000" id="svg_5"/>
  <g id="pencil_2_">
   <path d="m23.687,8.232l0.51,0.511l3.059999,3.059999l0.511002,0.51l0.509998,-0.51l1.021,-1.018999l0.508999,-0.512001c0.281002,-0.278999 0.282001,-0.737999 0,-1.02l-3.058998,-3.059c-0.282001,-0.282 -0.741001,-0.281 -1.021,-0.000999l-0.511002,0.509999l-1.018999,1.021l-0.511,0.509001z" fill="#ff8700" id="svg_1"/>
   <rect height="5.771" width="18.158" y="12.5546" x="14.996" transform="matrix(0.7071 -0.7071 0.7071 0.7071 -9.8662 24.0313)" fill="#0493ad" id="svg_2"/>
   <path d="m8.379,23.540001l-2.363999,6.152c-0.101001,0.261997 0.03,0.392998 0.292,0.292l6.151999,-2.363003l-4.08,-4.080997z" fill="#ff8700" id="svg_3"/>
  </g>
 </g>
</svg>
